HIERARCHY
ROOT Hips
{
  OFFSET 0.000000 0.000000 0.000000
  CHANNELS 6 Xposition Yposition Zposition Zrotation Xrotation Yrotation
  JOINT Spine1
  {
    OFFSET 0.000000 0.000000 0.000000
    CHANNELS 3 Zrotation Xrotation Yrotation
    JOINT Spine2
    {
      OFFSET -0.000000 4.400000 -0.396350
      CHANNELS 3 Zrotation Xrotation Yrotation
      JOINT Chest
      {
        OFFSET 0.000000 0.000000 0.000000
        CHANNELS 3 Zrotation Xrotation Yrotation
        JOINT LeftShoulder
        {
          OFFSET 10.022000 24.778000 0.395630
          CHANNELS 3 Zrotation Xrotation Yrotation
          JOINT LeftArm
          {
            OFFSET 4.424000 -11.703100 -0.000000
            CHANNELS 3 Zrotation Xrotation Yrotation
            JOINT LeftForeArm
            {
              OFFSET 0.000000 -8.051800 1.578300
              CHANNELS 3 Zrotation Xrotation Yrotation
              JOINT LeftHand
              {
                OFFSET 0.188791 -1.000000 18.400000
                CHANNELS 3 Zrotation Xrotation Yrotation
                End Site
                {
                  OFFSET 0 0 1
                }
              }
            }
          }
        }
        JOINT RightShoulder
        {
          OFFSET -10.021000 24.778000 0.395630
          CHANNELS 3 Zrotation Xrotation Yrotation
          JOINT RightArm
          {
            OFFSET -4.424000 -11.703100 -0.000000
            CHANNELS 3 Zrotation Xrotation Yrotation
            JOINT RightForeArm
            {
              OFFSET 0.000000 -8.051800 1.578300
              CHANNELS 3 Zrotation Xrotation Yrotation
              JOINT RightHand
              {
                OFFSET -0.188791 -1.000000 18.400000
                CHANNELS 3 Zrotation Xrotation Yrotation
                End Site
                {
                  OFFSET 0 0 1
                }
              }
            }
          }
        }
      }
    }
  }
  JOINT LeftLeg
  {
    OFFSET 11.645200 -25.728500 2.500100
    CHANNELS 3 Zrotation Xrotation Yrotation
    JOINT LeftShin
    {
      OFFSET 0.214890 -17.734000 -7.827300
      CHANNELS 3 Zrotation Xrotation Yrotation
      JOINT LeftFoot
      {
        OFFSET -0.009445 -31.756800 -0.000000
        CHANNELS 3 Zrotation Xrotation Yrotation
        JOINT LeftToeBase
        {
          OFFSET 0.000000 -3.500000 14.000000
          CHANNELS 3 Zrotation Xrotation Yrotation
          End Site
          {
            OFFSET 0 0 1
          }
        }
      }
    }
  }
  JOINT RightLeg
  {
    OFFSET -11.645200 -25.728500 2.500100
    CHANNELS 3 Zrotation Xrotation Yrotation
    JOINT RightShin
    {
      OFFSET -0.214890 -17.734000 -7.827300
      CHANNELS 3 Zrotation Xrotation Yrotation
      JOINT RightFoot
      {
        OFFSET 0.009444 -31.756800 -0.000000
        CHANNELS 3 Zrotation Xrotation Yrotation
        JOINT RightToeBase
        {
          OFFSET 0.000000 -3.500000 14.000000
          CHANNELS 3 Zrotation Xrotation Yrotation
          End Site
          {
            OFFSET 0 0 1
          }
        }
      }
    }
  }
}
MOTION
Frames: 9
Frame Time: 0.033333333
4.640613 73.639275 307.018463 3.121757 -8.249320 -0.619899 -0.000000 -0.000000 6.059870 -3.273604 -0.000000 0.000000 0.000000 11.845797 0.000000 16.003625 1.970481 -0.011427 -1.681957 0.000000 -27.485841 0.000002 71.516338 -0.000002 10.128893 -4.695859 -1.697404 -16.000941 -11.336080 0.011647 1.727792 -0.000000 30.090752 -0.000002 61.472928 0.000002 2.640512 9.458724 -10.704747 -3.859715 -28.763228 9.831808 0.000000 34.935155 -0.000000 4.891701 -3.641451 0.311438 1.642375 5.161588 -7.316381 -4.998080 5.406757 -12.863738 -0.000000 51.909568 0.000000 -2.177108 -29.908541 -1.085935 3.017690 -18.864293 14.544100
5.440769 74.607857 310.126007 3.771943 -8.853674 -1.430370 0.000000 -0.000000 5.183737 -3.734479 0.000000 0.000000 0.000000 12.419363 0.000000 16.003444 1.070321 -0.011422 -1.832451 -0.000000 -29.030787 -0.000002 71.316546 0.000002 10.524725 -4.116689 -1.544450 -16.001068 -10.723038 0.011622 1.996759 -0.000001 30.455884 0.000002 61.889774 -0.000002 2.191445 9.259666 -10.498495 -5.102185 -25.835831 10.021073 0.000000 34.615119 0.000000 5.729340 -4.681011 0.469115 1.014794 4.071908 -6.581837 -9.217898 -0.453729 -12.710952 -0.000001 67.408746 0.000001 -1.192073 -17.901907 -0.366477 4.982528 -39.324047 17.821810
6.374814 75.263039 312.962311 4.295228 -9.189491 -2.576647 0.000000 -0.000000 4.699570 -4.253368 0.000000 -0.000000 -0.000000 13.104352 -0.000000 16.003222 -0.043704 -0.011420 -1.619035 -0.000000 -30.535425 -0.000001 70.627685 0.000001 10.812854 -3.589418 -1.472162 -16.001119 -10.477204 0.011613 2.142760 0.000000 31.138404 0.000001 61.632527 -0.000001 1.325226 8.911760 -9.858080 -6.703225 -21.869386 10.663166 -0.000000 32.706140 0.000000 6.364240 -5.781986 0.643779 1.015866 3.172316 -6.029217 -13.632430 -6.250437 -13.707846 0.000002 78.546295 -0.000001 -2.288738 -10.560133 -0.419667 10.084900 -50.808908 24.037333
6.994320 75.838676 315.458832 4.269971 -10.198593 -3.292202 0.000000 -0.000000 3.366309 -4.302468 0.000000 -0.000000 -0.000000 14.164974 -0.000000 16.002839 -1.967532 -0.011427 -1.127794 0.000000 -32.161201 0.000002 69.875276 -0.000003 11.129487 -5.169467 -2.642844 -16.001189 -10.141693 0.011601 1.966878 0.000000 31.998411 -0.000002 60.425682 0.000001 0.256597 10.112305 -11.619069 -7.267123 -18.425603 10.372354 0.000000 30.446462 -0.000000 6.164620 -6.556525 0.706590 1.076812 3.693275 -5.153155 -16.437894 -12.027229 -15.672461 0.000001 83.360192 -0.000001 -3.658914 -11.965303 -0.759551 11.114876 -46.891985 26.175024
7.226243 76.361893 317.762512 3.934039 -10.242892 -3.694176 0.000000 -0.000000 2.190049 -3.926712 -0.000000 0.000000 -0.000000 14.516930 0.000000 16.002559 -3.363051 -0.011439 -0.435163 -0.000000 -33.136864 0.000002 69.224047 -0.000002 10.946694 -5.525250 -2.782742 -16.001364 -9.278551 0.011571 1.702581 -0.000000 32.354032 0.000002 59.890746 -0.000002 -0.842611 10.063126 -12.098275 -7.282762 -15.018856 10.566320 0.000000 28.302476 -0.000000 6.116334 -7.067996 0.755425 0.933424 2.944448 -5.096899 -16.347754 -16.098952 -17.139186 -0.000006 82.830383 0.000006 -4.295438 -14.145324 -1.051581 8.908552 -40.265347 24.925647
7.363047 76.790764 319.894470 3.524698 -10.119857 -4.178879 -0.000000 0.000000 1.183051 -3.468232 0.000000 -0.000000 0.000000 14.528619 0.000000 16.002364 -4.345042 -0.011453 0.392171 0.000000 -33.904600 0.000003 67.882853 -0.000003 10.541707 -4.641426 -2.648783 -16.001662 -7.826300 0.011527 1.096522 -0.000000 32.118842 -0.000001 59.248353 -0.000000 -1.605387 9.355802 -11.781453 -6.865073 -12.172078 11.002646 0.000000 26.413735 -0.000000 5.722582 -7.794074 0.778600 0.911261 2.580479 -5.262008 -15.639317 -18.918324 -18.480129 0.000000 78.731428 0.000000 -4.232703 -15.828178 -1.156431 6.314245 -32.069493 24.124317
7.465848 77.154411 321.806335 3.077715 -9.858077 -4.338972 0.000000 -0.000000 0.601949 -2.891433 0.000000 0.000000 -0.000000 14.327272 0.000000 16.002229 -5.018416 -0.011464 1.111099 -0.000000 -34.885032 0.000001 66.247933 -0.000001 10.595140 -4.068668 -2.920557 -16.002003 -6.136730 0.011486 0.184804 -0.000000 32.205613 0.000002 59.196141 -0.000002 -2.230217 8.931341 -11.775042 -6.343705 -9.847550 11.647197 -0.000001 24.360986 0.000000 5.662690 -7.460087 0.737581 0.638815 1.720446 -5.888825 -14.637115 -20.236260 -19.570244 0.000001 71.264319 -0.000001 -3.949556 -17.381852 -1.181590 4.332930 -22.203054 23.821563
7.471581 77.633842 323.210205 2.684430 -9.527661 -4.249635 0.000000 0.000000 0.397075 -2.153437 0.000000 0.000000 -0.000000 13.465157 0.000000 16.002273 -4.788915 -0.011460 1.731200 0.000000 -35.953595 -0.000001 64.103459 0.000000 9.375123 -3.265154 -3.572166 -16.002439 -3.962226 0.011447 -0.942815 -0.000000 31.852562 0.000001 59.121873 -0.000001 -2.289734 8.374477 -11.425898 -5.120262 -7.951175 11.913544 0.000000 21.327647 -0.000000 5.021994 -5.891655 0.516806 0.154159 1.144406 -6.495067 -12.806532 -18.682827 -19.350878 0.000002 60.475801 -0.000002 -3.431918 -19.109703 -1.124736 3.111792 -11.871400 23.248613
7.409686 77.906548 324.848511 2.468905 -9.166069 -3.877750 -0.000000 0.000000 -0.047144 -1.757120 -0.000000 0.000000 -0.000000 12.596358 0.000000 16.002263 -4.841588 -0.011461 2.343115 -0.000000 -36.375587 0.000001 61.779827 -0.000000 7.326786 -1.980349 -2.681454 -16.002733 -2.492099 0.011431 -1.802997 -0.000000 32.305572 0.000000 59.846109 0.000000 -2.048116 6.972096 -10.631914 -4.960857 -5.788123 12.453030 0.000000 18.681707 -0.000000 4.566835 -5.626688 0.448703 0.384642 1.005124 -7.560333 -10.910576 -16.919305 -18.660720 0.000000 49.204491 -0.000000 -2.349403 -18.895095 -0.761204 1.535872 -3.293369 22.221722
